# xmcd
#
# Track frame offsets: 
#        150
#        24007
#        41209
#        63292
#        84732
#        107202
#        129384
#        146074
#        160462
#        182054
#        200482
#
# Disc length: 2924 seconds
#
# Revision: 1
# Processed by: cddbd v1.5.2PL0 Copyright (c) Steve Scherf et al.
# Submitted via: ExactAudioCopyFreeDBPlugin 1.0
#
DISCID=990b6a0b
DTITLE=Terrance Howard - Shine Through It
DYEAR=2008
DGENRE=R&B
TTITLE0=Love Makes You Beautiful
TTITLE1=Shine Through It
TTITLE2=Mr. Johnson's Lawn
TTITLE3=Sanctuary
TTITLE4=No. 1 Fan
TTITLE5=Spanish Love Affair
TTITLE6=Plenty
TTITLE7=I Remember When
TTITLE8=It's All Game
TTITLE9=She Was Mine
TTITLE10=War
EXTD=YEAR: 2008
EXTT0=
EXTT1=
EXTT2=
EXTT3=
EXTT4=
EXTT5=
EXTT6=
EXTT7=
EXTT8=
EXTT9=
EXTT10=
PLAYORDER=
